<svg id="Слой_1" data-name="Слой 1" xmlns="http://www.w3.org/2000/svg" viewBox="0 0 295.59 63.23">
	<defs>
		<style>
			.cls-1{fill:#0fc3ed;}
		</style>
	</defs>
	<title>
		paint-smear-title
	</title>
	<path class="cls-1" d="M465.85,394.9c-1.38-.21-1.2,0-1.65-.35l-.2.3c-.37.58-.73.36-1.08.37-4.84,0-9.69,0-14.53,0h-.32a1.32,1.32,0,0,1-1.32-.18l-.27.22a1.87,1.87,0,0,1-2.07.18c-.36-.13-.75.21-1.12.21H428c-.71,0-1.3.12-1.32.27s-.17.48-.29.36-.52-.47-.56-.42-.27.21-.34.12-.41-.23-.54-.07a5.94,5.94,0,0,1-2.64.67s-2,0-4.13,0c-1.13,0-2.23.51-3.36.57-.91.06-1.82.71-2.75.87a3.28,3.28,0,0,0-1.88,1.07c-.44.48-.89-.08-1.29.39a3,3,0,0,1-1.75.92,3.6,3.6,0,0,1-1.21.49A1.36,1.36,0,0,1,406,400c.16-.24.51-1,.39-1.1l-.6-.28a12.72,12.72,0,0,1-2,.31l-1-.19a6.33,6.33,0,0,1-1.54-1.16,6.47,6.47,0,0,1-.26-2.93c.14-.28.86-1.27,1.11-1.22s1.13.11,1.17,0a1.78,1.78,0,0,1,1.22-.69c.57,0,2.12-.8,2.25-1.39a17.37,17.37,0,0,0,.4-2.41,1.39,1.39,0,0,0-.76-.57c-.3-.05-1.47-.42-1.92-.51s-1.62.83-1.63.95-.16.44-.25.43c-.59-.11-.76-1-1.17-1.27h-.72c-.32.26-.83-.16-1.14-.94l-.48-1.2a5.29,5.29,0,0,0-.36-1.51,2.42,2.42,0,0,1,.25-1.45,13.86,13.86,0,0,0,.84-3.07l-.05-.18,0-.12a22.11,22.11,0,0,1,1.32-3.87,10.49,10.49,0,0,1,1.14-1.65l.25-.33a6.46,6.46,0,0,0-.16-2.32c-.17-.44-1.07-.49-1.24-.8a6.38,6.38,0,0,1-.65-2.13,5.07,5.07,0,0,1,.78-2.19l.17-.44a7.17,7.17,0,0,1,2.2-2.79,14.09,14.09,0,0,0,2-2.26c.83-1.19,1.77-1.76,2.61-2.82a.46.46,0,0,1,.3-.12,15.88,15.88,0,0,0,2.21-.48c1-.36,2-.64,3.06-1a11.07,11.07,0,0,0,2.44-.85,13.48,13.48,0,0,0,2-1.37c1-.83,2-1.83,3-2.65l.64-.54c.75-.24,1.16-.07.91.4l-.26,0-.58.07c-.61.58-.49,1,.26.83l.61-.19c.13,0,.25-.19.38-.21a5.89,5.89,0,0,0,.84,0,2.34,2.34,0,0,0,.64-.45c.71-.56,1.48-.46,2.18-1.21a2.34,2.34,0,0,1,1.34-.59,18.83,18.83,0,0,1,2.63-.46c.87-.08,1.75,0,2.62,0s1.93-.71,2.83-.34c1.17.49,2.32.12,3.47.39.27.06,1.4-.72,1.52-.47s1.74.31,1.79.25.31-.22.38-.13.85.11,1.14.39l.23-.11c1.8-.92,3.64-.16,5.45-.43.74-.11,1.48-.35,2.21-.43s1.5.3,2.19-.09c1.06-.6,2.11-.26,3.16-.37.51-.05,2.43-.28,2.86-.92.24-.35,1.19-.11,1.71-.23a9.56,9.56,0,0,0,2-.56c0-.13-.09-.59-.42-.59a6.43,6.43,0,0,1-1.21-.09.58.58,0,0,1,.08-.32,4.52,4.52,0,0,1,1.61-.18c.75,0,3.26.79,3.32.58a2.17,2.17,0,0,1,.88-1c.37-.12,1.25-.21,1.06.12s-.25.89,0,1a2.75,2.75,0,0,0,1.38-.31,3.33,3.33,0,0,0,.63-.58,1.06,1.06,0,0,1,.23-.52c.11,0,2.76.36,2.92-.09s1-.79,1.06-.61a.71.71,0,0,0,.74.35c.34-.06,1.39.38,1.54.29s.77,0,.94,0,.28-.34.44-.43.57.08.57.08a.63.63,0,0,0,.78,0,5.25,5.25,0,0,1,1-.57,1.54,1.54,0,0,1-.09.55,3.28,3.28,0,0,0-.12,1.36,7.8,7.8,0,0,0,1,1.85l.46-.66a1.77,1.77,0,0,0,.91,0c.18-.09.71.48,1,.28l.35-.18a22.09,22.09,0,0,0,2.38-.15l6.6,0a21.66,21.66,0,0,0,2.48-.37l.19-.11.34-.22a.75.75,0,0,0,.9.15l.22-.12a.47.47,0,0,1,.31,0,21.56,21.56,0,0,0,5.24-.16c1.15-.19,2.21-.7,2.37-1.13s.74-1.46.84-1a3.15,3.15,0,0,0,2.43,1.81s.89,0,2.42,0a1.51,1.51,0,0,0,1-.47c.29-.27.51.79.79.09,0-.08.23.17.35.23.43.21.84.38,1.27-.12a.43.43,0,0,1,.59-.14l.76.66a9.16,9.16,0,0,1,3.25-.69,18.46,18.46,0,0,1,3.9.36c.18.2.67.1.91.17l.22-.33c.18-.26.56-.17.77.09l.35.44a.69.69,0,0,1,1-.29h.26c1.77,0,3.55,0,5.33,0l.77,0a18.16,18.16,0,0,0,3.63.29s3.22-.1,5.87-.35l.61-.05a13.37,13.37,0,0,1,3.28-.41,36.16,36.16,0,0,1,6.39.57c1.76.36,3.5.18,5.25.37l.15,0c.17.18.39.19.5,0l.11,0a3.93,3.93,0,0,1,.84,0l16.2,0a9.67,9.67,0,0,0,3-.4l.39.82c.07.14,3.15-.59,3.83,0,.17.14.93-.57,1.34-1,0,0,1,1.08,1.37.67.21-.22,1.41,0,1.7,0,1.46,0,5.21-.24,5.62-.24a7.74,7.74,0,0,1,2.21.19,8.47,8.47,0,0,0,3.21,0c1.54-.65,3.08-.18,4.62-.39.23,0,2.81-.48,3.08-.44a22.27,22.27,0,0,0,5.46-.14,38.24,38.24,0,0,1,4.2-.76c.22,0,1.09.56,1.6.75s2.14-1.16,2.31-1.18,1.19.92,1.69,1a30.67,30.67,0,0,0,3.88-.52,10.3,10.3,0,0,1,2.78,0c.1.09.62-.08.91-.1a18,18,0,0,1,2.1,1.2c0-.05,3.21.54,4.15.11a7.78,7.78,0,0,1,2.57-.36,1.49,1.49,0,0,0,1,.25c0-.08.75,0,.9-.25a11.49,11.49,0,0,0,3.81-.44c.41-.15,1,.83,2.53.43a2.07,2.07,0,0,1,1.31.14s.94-.15,1.27-.15,1-.35,1-.27.56,0,1-.44l.54.6c.33.38.81.06,1.22.15.6.12,1.23-.41,1.8.42.09.12.29,0,.39-.12.32-.52,1,.12,1,.12.16,0,1.22.16,2.37.33a21.58,21.58,0,0,0,4.73.15c.13,0,1.06.78,1.43.74s1.31-.2,1.33,0a2.6,2.6,0,0,0,.18.68l0,0,1-.29a29.77,29.77,0,0,0,3.42,1.22l1.52-.07c.84.4,1.5.86,1.46,1s.29,1-.12.94-1.42.67-1.49.59-.32-.2-.34-.05a1.52,1.52,0,0,0,.93.95l.43-.27c.5-.3,2.37.09,2.86.06s.95.61,1.49.52l.44-.07a1.51,1.51,0,0,1,.46,1.74l-.64.11a3.36,3.36,0,0,0-1.12-.29,4,4,0,0,1-1.4-.05l-.88-.25a9.6,9.6,0,0,0-1.35-.28,2.23,2.23,0,0,0-1.08.19c-.12.13-.36.48-.33.55a13.06,13.06,0,0,0,2.17.57,9.71,9.71,0,0,0,3.17.05l.45-.06a3.91,3.91,0,0,1,1.24,1.17c.12.28.54,1,.64.92s.44-.25.39-.05,0,.72.17.72a1.74,1.74,0,0,1,.73.17c0,.07-.15-1,0-1.11a3.44,3.44,0,0,1,.81.22c.15.1.81,1.05.85.86s.23-.71.29-.54a5.4,5.4,0,0,0,1.06,1.41l1.23-.57a15.5,15.5,0,0,0,2.66.78l.81.21c.22.15,1.15-.51,1.61-.5l.81,0a3.14,3.14,0,0,1,.47,1,.72.72,0,0,0-.1.26s.32-.09.48.16a10.75,10.75,0,0,0,2.67.92h.13c.23.53-1.91.4-2.1.31a3,3,0,0,0-1.64.56c-.15.25-1-.43-1.22-.44-.49,0-2.13.1-2.13.1a17,17,0,0,1-2.4.78c-.64,0-3.22.46-3.88.5h-.12c0,.14-4.64-.33-4.65-.09s.2.9.06.9-.81-.27-.71-.32.32-1,.23-.93-2.7.35-2.7.35a3.55,3.55,0,0,0-1.2.43c.08,0,.87.38,1,.31s.73-.36.74-.2a7.47,7.47,0,0,1-2.3,1c-.08-.11-.66,0-1.2.08l-.63.79a2.59,2.59,0,0,0-1.19-.1,60.63,60.63,0,0,0-9.43.49c-.56.09-2.23.5-2.23.5-.6,0-.62.54,0,.43,1.58-.28,1.7.8,1.74.62a.26.26,0,0,1,.51-.06,4.9,4.9,0,0,1,.74,1.58h0a2.92,2.92,0,0,0-1.57.07c-.08-.22-.45-.26-.82-.09s-1.41-.27-1.46-.18a8.37,8.37,0,0,1-.73.78c-.28.24-1-.64-1.32-.53l-.69.17a6.15,6.15,0,0,0-1.45-.15c-.28,0-1.83,1-2.63,1l-.76-.39c-.89-.46-1.87-.13-2.81-.09-.11,0-3.25-.05-3.25-.05a3.93,3.93,0,0,0-1.73,0c-.37.09-.67-1.05-1.11-.09-.22.49-1.45.86-1.45.86-.56-.18-1.08-.17-1.15,0s-.6-.13-.78-.18-.65,0-.67.29-.47,1-.94,1-1.8.63-1.85.46a1.45,1.45,0,0,0-1.3-.48c-.61.1-1.88.55-1.45.61l.37.53c.3.42,1.86,0,2.19.15s1.23.29,1.15.61-.17,1.17-.06,1.21.34.85.24.81-.8.14-.82,0a1.8,1.8,0,0,0-.4-.79c-.16-.11-.08.67-.08.71s-.79.16-.81,0a3.26,3.26,0,0,0-.8-1.18l-1.42.07c-1.08.11-1.86.29-1.72.39s.87.12,1,.3,2.21-.15,2.22,0a.84.84,0,0,1-.72.62c-.42,0-1.38.18-1.27.4a3.89,3.89,0,0,0,2,1.36,7.24,7.24,0,0,1,1.69-.79,6.14,6.14,0,0,1,.86.4,2,2,0,0,1,1-.39c.22,0,.78.3.81.09s.52-.39,1,0l.47-.74a1.65,1.65,0,0,1,.81.59c.16.25,2.24-.21,2.24-.21.38-.17.68-.4.68-.52s-.59-.66-.54-.85a5.43,5.43,0,0,0-.74-1.88c-.12.08-.49.26-.53.17s-1.42-.68-1.28-.76a6.7,6.7,0,0,1,1.88.31c.23.22.87-.89,1.08-1.06s1.79,1,1.79,1.08-1.14.59-1.16.72,1.41,1,1.34,1.12-1.36.68-1.37.82a2.61,2.61,0,0,0,1.84.55c1,0,3.73-.26,3.73-.57s0-1.24-.1-1a1.7,1.7,0,0,1-1.06.7c-2.23-.89-2.2-2.7-2.14-2.68a18.65,18.65,0,0,0,3.41,0,20.16,20.16,0,0,0,5.39.47,7.9,7.9,0,0,1,2.19-.13l1.27.89c.26-.42.64-.56.84-.31l7.23.4a22.46,22.46,0,0,1,3.48,0l.68.05c.25-.23.82,0,.88-.09s1.53-.64,2.12-.28a11.19,11.19,0,0,0,2.16.6,2,2,0,0,1,0,.63l-.06.06c-.33.35-.62-.42-1-.1s-.68.05-1,.12c-.53.09-1.05-.08-1.6.35-.37.29-.89.29-1.38-.28l-.49-.58c-.71.71-1.12,1.5-.91,1.75s.32.63-.13.4-1.41.86-2,.87-2.12-.53-2-.73.08-.79-.19-.79-.94.14-.75.31-2.3.67-2.31.79a18.5,18.5,0,0,0,1.81.73c0,.05-.39.62-.2.77s.64.76.58.9a1.44,1.44,0,0,1-1.17.45c-.49-.11-1.85-.27-1.86-.12a3,3,0,0,0,.05.62h0c1.14,0,3.42-.15,3.37-.35s-.07-.85.06-.91.43-.33.34-.43a2.17,2.17,0,0,1-.2-.95l0,0c.09.09.16.35.24.34a29.56,29.56,0,0,1,4.59.36,4.15,4.15,0,0,1,1.53.12,13,13,0,0,0,2.33,0,2.69,2.69,0,0,1,1.6.56,8.39,8.39,0,0,0,3.07,1.29,16.75,16.75,0,0,1,2.7.58c.27.12,3,0,3.06.17s.72-.2.77-.1,1.71-.43,1.88-.24a13.55,13.55,0,0,0,2.45,0,8.2,8.2,0,0,1,3,.54.2.2,0,0,0,.3.14c.12-.08.81.73.75.91a3.93,3.93,0,0,1-1.86.72c-.66,0-3.23.73-3.89.46a3.08,3.08,0,0,0-1.33-.21,14,14,0,0,1-2,.3c-.52.09-2.25.12-2.42.12s-1-.7-1.11-.58-.29,0-.38,0-.32.07-.32.23a3.51,3.51,0,0,0,.32.68,2.13,2.13,0,0,1-1.61,1s-3-.89-4-1.06a5.19,5.19,0,0,0-1.11,1.1c-.1.23,1.95,1.53,2,1.47a19.54,19.54,0,0,1,3.11,1c-.11.08-2.46,0-2.79.05a10.17,10.17,0,0,1-2.79-.84c-.23-.19-1.32.43-1.84.44,0,0,0-1.09,0-1.06a1.49,1.49,0,0,0,.62-.09c0-.06-.84.3-.93.21-1.22-1.28-2.52-.79-3.8-.91-.87-.08-1.75-.35-2.63-.43s-1.81,0-2.71,0c-.36,0-.75-.57-1.06-.38-1.26.79-1.7.72-1.7.72a29.43,29.43,0,0,0-4.18-.33l-6.05,0a10.58,10.58,0,0,0-3.76.75l-1-.3c-.1.29-2.72,1-2.72,1-.27-.07-1.6-.12-1.64-.21a1.16,1.16,0,0,0-1,0s-1.33.11-1.79.1-1.35-.39-1.45-.19-.71.19-1.2-.36l-.41.72a1.46,1.46,0,0,1-1.5.54c-.39-.33-1.47.44-1.47.44a3.32,3.32,0,0,1-1.81-.51l-.85.9a.89.89,0,0,0-1.11-.21,9.81,9.81,0,0,0-1.92.07,8.92,8.92,0,0,0-2.35.79l-.48.27c-.61-.12-1.35-1.09-1.91-1.09s-2.37,0-2.79,0-1.63.71-1.81.55a9.55,9.55,0,0,0-2.24.45c-.33.19-2.41.94-2.41.94-.64-.21-1.26-.19-1.38.05a2.26,2.26,0,0,1-1.06.9,32.45,32.45,0,0,1-4.2.11c0-.14-.54-.23-1.13.24a14.58,14.58,0,0,1-2.42-.27,27.13,27.13,0,0,0-3.34-.26c-.74,0-2.61.66-3.23.26l-1,1.23a6.87,6.87,0,0,0-1.15-.39c-.14,0-.53.1-.45.25a35.76,35.76,0,0,0,3.67.54,21.06,21.06,0,0,0,3.37,0c.46,0,2.27,0,2.72,0,1,0,1.94-.65,2.94-.49a5.36,5.36,0,0,0,2.92,0,5.51,5.51,0,0,1,2.22-.56,31.49,31.49,0,0,0,3.66,0,15.71,15.71,0,0,0,3.58-.71c.24-.23,1,.17,1.19.32a5.16,5.16,0,0,0,1.7,0c.54-.05,2.55-.54,3.29-.67a11.62,11.62,0,0,1,2.63-.65l.63.09a1.53,1.53,0,0,1,1.29.44,1.05,1.05,0,0,1,1.34-.91c1.1.28,2.17-.52,3.26-.52.47,0,2.35.32,2.81.26s1.84-.53,1.87-.47,4.48-.18,4.45-.17l0,0c.2-.57,3.88-.46,5.45-.44,0,0,.1.18.15.28s.3-.06.56-.33l.93.16a16.06,16.06,0,0,0,3.14.13,8.88,8.88,0,0,1,1.67-.09c.1.08.21.31,0,.34s-.54.77-.66.62a6.84,6.84,0,0,0-2.44,0s-2.29.25-2.74.2c-.79-.09-1.53.65-2.32.49a30.13,30.13,0,0,0-3.49,0l-1.34.54c-.26.1-2.21.22-2.7.33a21.79,21.79,0,0,1-2.53.38,27.86,27.86,0,0,0-3.48.45,31.5,31.5,0,0,1-3.33.23,5.71,5.71,0,0,1-1.2.36,37.52,37.52,0,0,0-4,.38c-1.1.21-4.32.19-4.71.3,0,0-2.3.56-3.29.7a21.93,21.93,0,0,0-2.24.54c-.21-.27-.9-.14-1.16-.1a16.17,16.17,0,0,0-4.08.55,6,6,0,0,1-2.22.53c-1.15-.06-3-.11-4.18-.11a15.5,15.5,0,0,0-3.57.5,18.29,18.29,0,0,1-3.89.35c-1.29.07-2.57,0-3.86,0h-.14a.35.35,0,0,1-.29-.32c0-.18-.17-.48-.26-.3s-.48.46-.67.23-1.07.35-1.32.51-1-.59-1.09-.39-.54.72-.77.72a2.13,2.13,0,0,1-1-.33c-.15-.18-.66-.53-.72-.32a3.17,3.17,0,0,1-2.1.71l-.9-.08c-.56-.05-1.11-.66-1.69-.43a8.52,8.52,0,0,1-1.06.44,1.79,1.79,0,0,1-1.05,0,8.53,8.53,0,0,0-3.68-.62c-1.14.11-3,.2-4.17.2,0,0-1.82,0-3.77,0-.39,0-.77-.34-1.16-.42s-.84.07-1.26,0-.76.41-1.19.08-.83-.05-1.25-.05a3.23,3.23,0,0,1-1.35,0c-1.68-.75-3.38,0-5-.51-1.9-.61-3.79-.13-5.67-.39-.6-.08-1.2-.36-1.8-.43a18.68,18.68,0,0,0-2,0,10.72,10.72,0,0,1-1.88,0c-.46-.09-.9-.47-1.38-.48h-.46a2.2,2.2,0,0,0-1.71.18l-.37-.17a8.6,8.6,0,0,0-3.68-.41c-.34,0-.59-.66-1-.48s-1,.7-1.35.35l-.46-.47a22.25,22.25,0,0,1-2.93.15l-7,0c-.32,0-1.21-.22-1.28-.15s.22.64,1.17.67l1.48-.12a8.2,8.2,0,0,1,1.28,1.18c0,.09.06.14.11-.07s.27-.53.44-.53.61.18.57.41,0,.9.24.9a2.47,2.47,0,0,1,.81.11.6.6,0,0,1-.34.34l-2.77,0a1.6,1.6,0,0,1-1.08.25c-.37-.06-1.37-.51-1.45-.77s-.35-.91-.37-.61-.3.95-.6.85a10.51,10.51,0,0,1-2.17-.5c-.09-.17-.38-.62-.48-.62s-1.07,1-1.1.81a.64.64,0,0,0-.69-.43,14.71,14.71,0,0,0-2.1.42c-.39.19-1.67-.15-1.91,0a5.5,5.5,0,0,1-1.13.28c-.05-.08-.68,0-1-.28l-1.52.95c-1.15-.2-2.74-.15-3.11-.74-.27-.43-3.34.12-3.75.4s-2-.14-2.44,0c-4.75.59-13.8.52-14.26,1s-4.33.56-5,.2S469.11,394.49,465.85,394.9Zm103.42-19.52c-.07.12-.22.09-.34.22-.56.6-1,0-.84,0s.66.81.73.67.28-.79.45-.45.36.33.36.12S569.34,375.26,569.27,375.38Zm-78.95,14.95a18.72,18.72,0,0,1-3.28-.13c-1.15,0-2.05.14-2,.3s-.86-.29-1-.21-.83.25-.88.16a1.81,1.81,0,0,0-1.07-.18c-.5.05-1.86.74-1.94,1.07s-.51,0-.47-.14a1.17,1.17,0,0,0-.78-.84l-.78,1c-.4-.42-.85-.63-1-.46s-.8.72-1,.68a10.78,10.78,0,0,0-1.69.06c-.6.1-3,.44-3.68.44a15.68,15.68,0,0,0-2.58.17c-.09.1.32.83.71.92s1.43-.51,1.48-.35h.06c.65.06,2.59-.07,2.9,0a5.84,5.84,0,0,0,2-.49,1.53,1.53,0,0,0,1.76,0s1.41.77,1.91.46a1.18,1.18,0,0,1,.48-.23,27.61,27.61,0,0,1,3.75.05c.34,0,.67.16,1-.07.83-.62,3.08-.23,3.25-.48.61-.91,1.28-.33,1.91-.37s1.28-.41,1.91.36c.15.18.71-.49.7-.55s-.84-.46-.84-.51,1,0,1.06.29,3.23.77,3.23.77a7.85,7.85,0,0,0,1.2-.63s1.21.24,1.39.24c1,0,2,0,3,0,.23,0,1.06-.74,1.06-.74.37.15.7.43.72.62s.18.72.27.44.49-.73.76-.56,1.1.41,1.19.18.18-1.41-.15-1.71l-1.24.35c-.25-.27-.53-.34-.62-.15s-.81-.28-.9-.18-.6.16-.77.42-.89.84-1.09.58a4.63,4.63,0,0,0-1-1c-.15,0-.54.74-.69.74s-2.32-.79-2.32-.79c-.06.24-.54.78-.73.62a4.69,4.69,0,0,0-1.55-.94l-1.71-.18c-.67.5-1.27.82-1.33.73S490.39,390.14,490.32,390.33Zm52.19-2.11a6.13,6.13,0,0,0-2.18.17s-.56.11-1.84-.9l-.11-.08a6.82,6.82,0,0,1-1.25.71l-.41-.33a1.59,1.59,0,0,0-.88-.31c-2.19-.25-4.4.44-6.6-.42a5.76,5.76,0,0,0-2.19,0,7.33,7.33,0,0,0-2.29.05l-.69.22a4.21,4.21,0,0,1-1.66-.66c-.18-.21-1,.11-1.36-.06h-.35c-.87,0-1.74,0-2.61,0-.23,0-.52,0-.68-.24l-.38-.63a.84.84,0,0,1-1.32.18l-.36.41c-.4.46-.9.53-1.18.2s-.72-.31-1.08-.35a7.77,7.77,0,0,0-1.67,0c-.67.09-1.36-.33-2,.41a.44.44,0,0,1-.7,0c-.36-.66-.73-.21-1.09-.37s-.71-.46-1.06-.42c-.7.07-1.44-.46-2.11.4l-.09.11a4,4,0,0,0-.75-.43l-.22-.13c-.5-.3-.9.48-1.38.49s-.64-.29-1-.42-.63.35-.95.37l-.25,0c-.29-.23-.61-.24-.72,0H499c-1.16,0-2.3.6-3.47.53a8.74,8.74,0,0,0-1.9,0,8,8,0,0,0-2.32.66l-.12,0-.7.15a3.18,3.18,0,0,0-1.81-.21c-.24.15-.95,0-1.21.16l-.19,0c-.35.06-.74-.18-1,.09l-.21.19c-.24.57.15,1,.86,1a12.42,12.42,0,0,0,2.77-.26c.13-.14.47-.39.5-.24s.14.32.22.15.43-.63.5-.37.5.63.84.35H492c3.59,0,7.17,0,10.76,0h3c1.15,0,3,0,4.18.06a11.24,11.24,0,0,0,3-.42c2-.55,4.05.28,6.07-.52.44-.18.91.06,1.35-.05,1.11-.26,2.17.47,3.26.5h.08c.08.23.36.11.6-.26l.26.42c.32.52.72.47,1,.19l.83-.94c.82.75,1.54,1.24,1.59,1.07h.07c.64-.12,1.29.19,1.9-.47.06-.07.19.05.28.16a1.92,1.92,0,0,0,1.84.74c.56,0,1.12,0,1.67,0a2.11,2.11,0,0,0,.77-.28l.56-.29a2.47,2.47,0,0,1,1.3.48,1.39,1.39,0,0,0,1.43,0l.61.08h0a5.71,5.71,0,0,1,.76.11c.39.07,1.92-.45,2.62-.29l.63.16h0A1.28,1.28,0,0,0,542.51,388.22Zm73.09-16.37c-.41.12-.39.55,0,.95l.44.09,1,.22a12.82,12.82,0,0,1,3.64-.7c.94,0,3.52-.08,3.66-.14a2,2,0,0,1,1-.12c.24.08.9.14,1,0a2.13,2.13,0,0,0,.39-.66c0-.15.24-.51.39-.4a.69.69,0,0,0,.78-.07c.2-.22.25-.82-.33-.82a6.74,6.74,0,0,0-2.08.25c0,.14.08.47.16.39s.35-.18.45-.05.08.54-.38.45-1.65.53-1.8.41-.36-.39-.12-.34,0-.74-1.18-.74c0,0-1.63,0-3.43,0h-.74a5.44,5.44,0,0,0-1.34,1.3C617.11,372,616,371.73,615.6,371.85ZM552.32,390c0-.23.42-.29.86-.14a4.29,4.29,0,0,0,2.46,0c.47-.32,1.87.09,2.13-.11H558c.77,0,1.53,0,2.3,0h.13c.19-.1-.59-.48-1.73-.85a9.18,9.18,0,0,0-1.15,0c-.84,0-1.68,0-2.51,0-.46,0-1,.36-1.39-.42-.07-.13-.32-.08-.38.08-.23.59-.52.35-.77.34l-.57,0c-.62-.25-1.15-.38-1.2-.29a1.39,1.39,0,0,1-1,.18c-.47-.08-1.75-.21-1.74,0s.66.65,1.44.86l.7.24.71.24C551.57,390.34,552.29,390.25,552.32,390Zm32.17-14.15a5.33,5.33,0,0,1-.85-.25l-5.25,0c-.19-.07-.13-.44.37-.46.26,0,.73.14.78-.28s.12-.25.12-.25c.23-.05.42-.14.41-.2s-.39-.12-.83,0a5.36,5.36,0,0,0-1.58.64c0,.1.11.51,0,.52s-.66-.9-.81-.86-.56.37-.47.62.45.76.64.75c1-.07,1.38.83,1.79.93s1.44.11,1.57-.12a2.35,2.35,0,0,1,1.21-.88c.39,0,1.32.44,1.17.49a7.39,7.39,0,0,0,2.28.5,1.31,1.31,0,0,0,1.05-.51l0,0c0-.15-.66-.77-.74-.67S584.52,375.8,584.49,375.87ZM512.7,389.06a1.92,1.92,0,0,1-2,.11l-.62.39c-.17.1-.42.21-.55,0-.4-.52-.9-.54-1.18-.2s-.73.27-1.08.35l-.23.06c-.32,0-.51.1-.44.27s.49.62.75.55a4.75,4.75,0,0,1,1.08-.18c0,.06.26.24.31.15s.25-.28.29-.21a.13.13,0,0,0,.24,0h.05c.7-.07,1.4-.41,2.1.2.27.22.68.31.89,0,.34-.5.7-.48,1-.29a3.62,3.62,0,0,0,2,.43l.18,0a.85.85,0,0,0,.75.39,1.64,1.64,0,0,0,.7-.82l0-.06c-.46-.65-1-.39-1.47-.47-.74-.13-1.47.17-2.23-.36Zm155.63-39.22a3.21,3.21,0,0,1-.66-.68h-.27c-1.28-.08-1.76-.07-1.76-.07-1.14,0-2.09.23-2.09.47s.19.93.42.93h5.52c.22,0,.64.09.93.15a.41.41,0,0,0,.4-.69l-.43.05-.66.08A2.72,2.72,0,0,0,668.33,349.84Zm-24.21,26.27c-.56,0-1,0-1,.1s.25.28.59.25l.3.08c.32.08.63.35.95.42s.59.1.79-.18c.34-.46.72-.42,1-.18l.28.26a3.27,3.27,0,0,0,1.16,0l.3-.09c.29-.1.57-.3.85-.05s.59-.48.9-.17l.15.15c.16.21.7.21,1.2,0l.46-.15.08,0a.55.55,0,0,0,0-.56c-.1-.22-.41-.59-.5-.36l-.08,0a5.78,5.78,0,0,1-.93,0h-2a2,2,0,0,1-.94,0l-.27-.13a2.12,2.12,0,0,1-1.21-.13l-.24.35c-.43.62-.86.33-1.28.39Zm-81.48.3c.14.22.58.41.77.24s1.28.15,1.67.31l0,0a1.07,1.07,0,0,0,.14-.4c0-.12.2-.24.41-.19s.78.05.81-.13.19-.62.29-.66.37-.19.37-.25a2.58,2.58,0,0,0-1-.21,1.7,1.7,0,0,1-1.25-.34c-.71-.56-.89-.28-.89-.28a2.62,2.62,0,0,0-1.48.45A3.43,3.43,0,0,0,562.64,376.41Zm99.75,1.78c.15-.05.54-.14.86-.22s1.33.84,1.55.9l.2-.09.15-.06c.16-.23.34-.34.4-.25s.47,0,.79-.44l.43.65.37.54c.49-.79.75-1.56.56-1.71a1.32,1.32,0,0,0-1.09-.21c-.29.14-1.24.41-1.47.26s-1.3.22-1.94,0a1.49,1.49,0,0,0-1.34.27C661.87,377.93,662.24,378.23,662.39,378.19Zm-10.77-15.81c0,.23-.09.36-.2.3s-.39-.11-.46,0-.29.14-.35,0-.51-.06-.91.23a11.58,11.58,0,0,0-1.43,1.21.3.3,0,0,0,.41.19l.2-.12.25-.14c.26-.17.53-.23.59-.13a.34.34,0,0,0,.5,0,1,1,0,0,1,1-.2h.21c.18,0,.44-.42.5-.29.22.46.46.32.68.29l.22,0a1,1,0,0,0,.34-.83,4.11,4.11,0,0,0-.63-1.28C652.32,361.31,651.62,362.16,651.62,362.38Zm-76.91,13.13a2,2,0,0,1-1.26-.19c-.31-.19-1.21.2-1.18.28s-.44.93-.09,1.4,1.34-.49,1.39-.38.41-.44.45-.26.33.49.52.23,1.11-.33,1.22-.53a7.85,7.85,0,0,0,.35-.76A11.9,11.9,0,0,0,574.71,375.51Zm-51.33-.8c-.56.06-1,.22-.89.37s.51.54.8.48,1.61-.38,2.13-.53,1.49-.54.9-1.22l-.62.74c-.13.16-.39.23-.48.06a.8.8,0,0,0-1.37-.28Zm37.34.51c.18-.25-.05-.6-.51-.77a6.59,6.59,0,0,1-1.48.55c-.83.06-2.7.15-2.7.15-.2.05,0,.39.52.76l.91.27a3.44,3.44,0,0,0,1.51.2A6.5,6.5,0,0,0,560.72,375.22Zm-105.8,17.85c.06-.1.49-.11,1,0s1.69,0,1.62-.14a4,4,0,0,0-1.8-.57,28.84,28.84,0,0,0-3.24.34c-.06,0-.32,0-.31.14s.43.27.9.08S454.87,393.18,454.92,393.07Zm200.9-42.86c0,.16.23.36.5.45s1.51-.49,2.21-.3,2.38-.18,1.77-.24l-.47-.1c-.42-.1-.84-.37-1.27-.43s-1,.05-1.46,0l-.43-.09A1.27,1.27,0,0,0,655.82,350.21Zm-73.09,23.68a7.13,7.13,0,0,0-1.74.56c0,.06.32.25.74.27l.37,0c.31,0,.61-.25.92-.24a10.82,10.82,0,0,1,1.1.24c.33,0,.67.19,1-.39.21-.39.3-.32.3-.32.43.11,0,0-.94-.27l-.85.09Zm77.45-18.18a1.86,1.86,0,0,0,.89-.18s0,0,.39,0a16.63,16.63,0,0,0,4.89,0h.17c.19-.08-.6-.21-1.75-.29a23.74,23.74,0,0,0-4.66-.15h0C660,355.2,660,355.65,660.18,355.71ZM623.41,374.3c-.22,0-.4,0-.4.09a.93.93,0,0,0,.74.34l.38-.05.35-.06a1.76,1.76,0,0,1,1.39,0l.4-.36.32-.28c.43.12.78.15.77.06a1.68,1.68,0,0,0-1-.55c-.55-.13-2,.64-2.09.55a.34.34,0,0,0-.51.08l-.15.06ZM461.62,393.08c-.05.12.21.1.56,0s.8-.92.28-.92-2,.14-1.9.31.43.32.59.05S461.67,393,461.62,393.08ZM650.86,350c-.44.08-.38.33.15.55s1.81-.44,1.73-.59A5.23,5.23,0,0,0,650.86,350ZM544.64,388.47a4.44,4.44,0,0,0-1.5.13,1.68,1.68,0,0,0,1,.23,21.57,21.57,0,0,1,2.35.14c.16.06.72.17.81.07A8.52,8.52,0,0,0,544.64,388.47Zm21.11,1.61c.06.09.27,0,.48-.2l.19-.11.16-.1c.18,0-.6-.17-1.75-.3,0,0-.35,0-1.56,0,0,0-.06.1-.07.16v0a1.42,1.42,0,0,0,.67.23,7.64,7.64,0,0,0,1.45.18C565.35,389.89,565.7,390,565.75,390.08ZM589,374.15a2.77,2.77,0,0,0,1.15-.12,5.91,5.91,0,0,0-2.09-.26H586.7s-.05.09-.07.15v0A12,12,0,0,0,589,374.15Zm-27.67,2.09c.08.4.31.45.51.13s.29-1.37,0-1.57C561.62,374.69,561.2,375.85,561.29,376.24Zm76.23,2.21c.71,1,1.34,1.11,2,0Zm24.21-26.06a1.82,1.82,0,0,0-.88.12,1.32,1.32,0,0,0,.89.29l.44,0,.44-.05C663.1,352.53,662.22,352.39,661.73,352.39ZM451.26,393.7a3.82,3.82,0,0,0,.68-.89.87.87,0,0,0-.66,0c-.33.08-1,.7-.65,1.1l.26-.08Zm8.51-1.41c-.21-.18-.4-.28-.43-.22a1.29,1.29,0,0,0,0,.6c.06.21.37.74.59.75l.17,0,.14,0c.14-.07.27-.16.27-.22A5.62,5.62,0,0,0,459.77,392.29Zm196.68-17.4c0,.15.25.31.55.35s.92-.43.74-.47l-.15-.1-.14-.09c-.13-.23-.29-.32-.36-.2s-.28.31-.36.22S656.44,374.74,656.45,374.89Zm-12.09,2.79a2.63,2.63,0,0,0-.45.82.46.46,0,0,0,.48.28,6.59,6.59,0,0,0,.92-.19S644.62,377.32,644.36,377.68ZM561.07,390c.06.13.36.24.65.25s.67-.79.18-.87S561,389.83,561.07,390Zm68.52-10.82c.27,0,.49,0,.49-.07a.68.68,0,0,0-.49-.15,5.18,5.18,0,0,0-1,.07A3.92,3.92,0,0,0,629.59,379.14Zm12.33-.42c.26,0,.46-.05.46-.12a1.25,1.25,0,0,0-.88-.26l-.44,0h0C641,378.56,641.67,378.72,641.92,378.72Zm-54.23-2.53c-.06.11.1.21.34.21s.69-.12.49-.28l-.18-.07-.16-.07C588,375.84,587.74,376.07,587.69,376.19ZM467,392.87c.22,0,.4-.07.39-.15a.67.67,0,0,0-.4-.43C466.76,392.23,466.78,392.87,467,392.87Zm197-40.45c-.15,0-.28,0-.28.08a.32.32,0,0,0,.28.15,1.72,1.72,0,0,0,.56-.07A1.34,1.34,0,0,0,664,352.42Zm-31.93,26.76c.14,0,.25-.06.25-.13s-.11-.25-.25-.23-.52.12-.52.17A1.07,1.07,0,0,0,632.09,379.18Zm-45.29-3c-.11,0-.21,0-.21.08a.24.24,0,0,0,.21.15c.12,0,.42,0,.42-.08A.84.84,0,0,0,586.8,376.17Zm80.44-21a.12.12,0,0,0-.11.13c0,.07,0,.2.13.21s.25-.15.25-.19A.51.51,0,0,0,667.24,355.13Zm-208.32,37.7c.08,0,.14,0,.14-.07s-.06-.15-.14-.15-.28,0-.28.07S458.84,392.83,458.92,392.83Zm5.31.2a.11.11,0,0,0-.11.13c0,.07.06.24.12.2s.23-.15.23-.19A.44.44,0,0,0,464.23,393Zm168.51-14.15a.12.12,0,0,0-.11.13c0,.07.06.24.13.21s.23-.15.22-.19S632.81,378.88,632.74,378.88Zm1.87-10.28a1.9,1.9,0,0,0,0-.3,1.3,1.3,0,0,0-.05.3m-176.6,24a.32.32,0,0,0,0-.15.22.22,0,0,0-.05.15,1.09,1.09,0,0,0,0,.31A1.46,1.46,0,0,0,457.94,392.64Z" transform="translate(-398.67 -337.67)" />
	<path class="cls-1" d="M574,395.29a1,1,0,0,0,.93.18c.21-.12,1.07.27,1.38.27l.32-.39c.26-.32.67-.13,1-.1l.36,0c.41.18.76.28.8.22s.17-.16.22,0a2.55,2.55,0,0,1,.19.77c0,.2-.13.52-.28.39s-.78.31-1,.28a2.18,2.18,0,0,0-1.21.31l-.14-.21-.51-.81c-.51.49-1,.75-1.09.56a1.11,1.11,0,0,0-1.27-.17l-.5-.38L573,396a1.47,1.47,0,0,1-1.45.21h-.36c-1.43-.06-2.19-.05-2.19-.05a13.91,13.91,0,0,0-3,.29l-.44-.7c-.24-.38-.52.54-.88,0l-.22-.29a6.75,6.75,0,0,1-1.84,1.1l-.48-.79c-.32-.52-.54.61-.89,0-.2-.33-.6-.06-.91-.12l-.39-.08a2.05,2.05,0,0,0-.89-.17,1,1,0,0,1-.75.06c-.34-.1-1.25-1.08-1.36-.77l-.1,0a15.42,15.42,0,0,1-5.87.43l-.55-.17c-.56-.46-1.08-.73-1.14-.61a1.75,1.75,0,0,1-1,.39c-.49,0-1.72-.76-1.73-.66s-.11.56-.16.5-.24-.16-.31-.08-.31.22-.34,0-.3-.65-.54-.65-.93.1-1,.22a1.78,1.78,0,0,1-.93.85c-.46.11-1.7-.63-1.76-.55s-.32.21-.44.08a12.51,12.51,0,0,0-2.51-.52l-2.64.2a18.53,18.53,0,0,0-3.06-.31l-.49-.06-1.71-.23a10.66,10.66,0,0,1-2.24-.5c-.09-.1-.3-.48-.25-.6a2.16,2.16,0,0,1,1-.7l.28.37.3.4a5.68,5.68,0,0,1,1.75.19l.6-.59c.26-.26.61-.14.91-.15l.42,0c.47,0,.86.11.88.23s.2.66.35.73l.15-.05a8.6,8.6,0,0,0,.85-.44c.26-.13.46.6.79.07.15-.25.59.09.82.42.42.57.86.33,1.28.44l.37.09a4.82,4.82,0,0,1,1.14-.13c.22,0,1.39-1,2.29-1.18l.82.57.57.39c.7-.33,1.46-.43,1.7-.22l.24,0a57.39,57.39,0,0,1,7.86.27c1.15.12,2.22.21,2.37.2l.14,0c1,.14,2,.29,3.05.47h.08c.07.21.23.22.36,0l.12,0a.35.35,0,0,1,.38.18c.48.88.88-.3,1.33-.2s.77,1,1.23.22c.14-.23.43-.35.57-.19.62.74,1.27.34,1.91.42l2.32.27a24.87,24.87,0,0,1,2.72.4l.35-.14c.33-.14.7.3,1.06.37a5.52,5.52,0,0,0,1.15,0,7.38,7.38,0,0,1,1.15,0Z" transform="translate(-398.67 -337.67)" />
	<path class="cls-1" d="M426.62,342.78c-.22.11-.36.11-.31,0a11.55,11.55,0,0,0,1.87-1.29c.22-.25,1.3-.44,1.55-.61,1.07-.74,3.57-.5,3.57-.5.39-.14,1.24.07,1.45-.15s1.37.54,1.77-.25a2.59,2.59,0,0,1,1.63.34c.35.26,1.44-.63,1.57-.48a7.36,7.36,0,0,0,2.21.37c.07-.09.88.54,1.12.41a4.19,4.19,0,0,1,1.68.07c.31.1.26,1.1-.52,1.09l-1.14,0a5,5,0,0,1-2.3,0,6.63,6.63,0,0,0-2-.43c-.25,0-.49.34-.75.42a3.32,3.32,0,0,1-.91,0c-.23-.18-.85,0-1.11,0-.55.06-2.44-.26-2.69.08-.36.5-3.13.3-4.25.41A22.87,22.87,0,0,0,426.62,342.78Z" transform="translate(-398.67 -337.67)" />
	<path class="cls-1" d="M457.27,342.68a12.53,12.53,0,0,0-1.77-.54,5.59,5.59,0,0,0-2.27.73c0,.08-.54,0-1-.33,0,0-.67-.39-.74-.28a1.43,1.43,0,0,1-2,.22,7.5,7.5,0,0,0-1.66-.65,1,1,0,0,1,.62-1.51s1.08.7,1.22.51l.42-.59c.47.08,2.94,1.76,3.37,1.32s.79-.25,1.18-.38l.05,0a5.67,5.67,0,0,1,2.29-.59C457.18,340.67,457.48,342.77,457.27,342.68Z" transform="translate(-398.67 -337.67)" />
	<path class="cls-1" d="M676.93,348a5.7,5.7,0,0,1-1.89-.57c0-.11.12-.53.27-.57s.56-.26.44-.4a.84.84,0,0,0-1,.09l-.24-.22c-.6-.56-1.15-.66-1.72,0,0,.07-.14,0-.2,0h-.7a2.8,2.8,0,0,1-1.45-.23,1.36,1.36,0,0,1-.13-.67,1.59,1.59,0,0,1,1.11-.42l.45-.06.32-.05.8-.44a7.43,7.43,0,0,1,1,.17c.42.06,1.83.8,2.23.91a4.54,4.54,0,0,1,1.4.72c-.09.05-.3.26-.28.33s0,.19-.09.09-.42-.3-.5-.2-.33.29-.39.21-.25-.24-.26-.12a2.12,2.12,0,0,0,1.2.86c.69.23,2,1,1.31,1.31l-.42-.29c-.12-.08-.24-.25-.36-.28Z" transform="translate(-398.67 -337.67)" />
	<path class="cls-1" d="M498.79,339.32a1.35,1.35,0,0,1-.69.12l-.34,0h-.29c-.32,0-1.52.12-2.66.24,0,0-.16,0-1.27.26l-.45.1a2.23,2.23,0,0,1-.94,0c-2.62-.19.05-.47.12-.57h.06c.59,0,1.21.24,1.77-.06,1.5-.82,3-.18,4.51-.4h.06A1,1,0,0,1,498.79,339.32Z" transform="translate(-398.67 -337.67)" />
	<path class="cls-1" d="M586.77,339.54c-.16.19-.76.1-1.33-.19l-.49.4c-.35.28-.7.36-1,.11s-.43-.5-.73-.16l-.16.18a.78.78,0,0,1-.65-.12c-.11-.11-.39-.48-.37-.56a9.79,9.79,0,0,1,2.15-.14l3,.16c1.15.08,2,.2,1.83.28h-.13c-.66,0-1.32,0-2,0Z" transform="translate(-398.67 -337.67)" />
	<path class="cls-1" d="M659.24,385.63c-.26,0-.33,0-.15,0s.65-.12.67-.28.21-.53.38-.53.67.1.62.22,0,.48.29.48,1.05.08,1-.09-.13-.65,0-.66.43.14.43.37a4.58,4.58,0,0,1-.1.94l-.06,0-.73.25C660.76,386.46,659.5,385.63,659.24,385.63Z" transform="translate(-398.67 -337.67)" />
	<path class="cls-1" d="M683.42,354.3c.59.24,1,.52,1,.64a2.54,2.54,0,0,1-1.3.56c-.62.08-2.13-1.21-2-1.3a2.29,2.29,0,0,1,1.34-.2l.52.15Z" transform="translate(-398.67 -337.67)" />
	<path class="cls-1" d="M578.41,339.29a9.29,9.29,0,0,1-2.1.27l-2,.15h0c-.06.14-.24.16-.41,0s-.5-.57-.34-.68a4.07,4.07,0,0,1,2-.12l.74.09.72.08A3.28,3.28,0,0,1,578.41,339.29Z" transform="translate(-398.67 -337.67)" />
	<path class="cls-1" d="M460.94,342a4.18,4.18,0,0,1,.85-.94c.46-.44,1.78.14,1.74.33a2,2,0,0,1-1.77.73l-.82-.11Z" transform="translate(-398.67 -337.67)" />
	<path class="cls-1" d="M562.35,338.63c.37.07.56.25.43.4s-.51.46-.57.36a3.36,3.36,0,0,0-1-.71c-.42-.15-1.53.69-1.54.57a1.37,1.37,0,0,1,.14-.62.74.74,0,0,1,.69-.13C560.68,338.61,562,338.57,562.35,338.63Z" transform="translate(-398.67 -337.67)" />
	<path class="cls-1" d="M532.61,337.76c.33,0,.65.09.69.19a1.66,1.66,0,0,1,.07.76l-.07.06c-.18.14-.44.4-.56.24l-.44-.57c-.57.55-1,.79-.9.54a2.59,2.59,0,0,0,.13-.8A2.14,2.14,0,0,1,532.61,337.76Z" transform="translate(-398.67 -337.67)" />
	<path class="cls-1" d="M580.48,396.75c-.42.08-.77,0-.77-.2a.75.75,0,0,1,.76-.59c.41.06,1.25.45.75.54l-.37.12Z" transform="translate(-398.67 -337.67)" />
	<path class="cls-1" d="M583.29,397a.56.56,0,0,1-.48-.2,1.13,1.13,0,0,1-.09-.6,2.26,2.26,0,0,1,.68-.73c.25-.13.86,1,.79,1.06s-.24.17-.22.24S583.51,397,583.29,397Z" transform="translate(-398.67 -337.67)" />
	<path class="cls-1" d="M550,338.88c-.92,0-1.85.7-2.73-.56C548.23,337.66,549.1,338.87,550,338.88Z" transform="translate(-398.67 -337.67)" />
	<path class="cls-1" d="M660.27,387.76c-.51.12-.92.09-.92-.07a1,1,0,0,1,.9-.55c.5,0,1.8,0,1.8.06A14.5,14.5,0,0,1,660.27,387.76Z" transform="translate(-398.67 -337.67)" />
	<path class="cls-1" d="M459.08,341.36c.3-.22.63-.29.72-.14a2,2,0,0,1,.22,1h0c-.35,0-.69,0-1,0a1.45,1.45,0,0,0-.51,0l-.13.05c-.15.18-.27.23-.27.11A4.86,4.86,0,0,1,459.08,341.36Z" transform="translate(-398.67 -337.67)" />
	<path class="cls-1" d="M595.76,339.31a2.74,2.74,0,0,1-1.16.13c-.64,0-1.8-.15-1.16-.33l.58,0,.58-.05A2,2,0,0,1,595.76,339.31Z" transform="translate(-398.67 -337.67)" />
	<path class="cls-1" d="M537.61,338.56c0,.06-.1,0-.18,0a3.22,3.22,0,0,0-.8-.45c-.27-.09-.78-.33-.47-.37h.29l.31,0c.33,0,.65.12.71.25A2.33,2.33,0,0,1,537.61,338.56Z" transform="translate(-398.67 -337.67)" />
	<path class="cls-1" d="M523.75,338.8c-.13.29-.31.45-.4.35s-.33-.56-.27-.73.35-.66.53-.66S523.89,338.51,523.75,338.8Z" transform="translate(-398.67 -337.67)" />
	<path class="cls-1" d="M525,338.77c-.35.25-.57.21-.5-.09s.43-.93.69-.93a6.1,6.1,0,0,1,.94.06S525.35,338.51,525,338.77Z" transform="translate(-398.67 -337.67)" />
	<path class="cls-1" d="M466.39,341.72c-.34-.09-.41-.23-.15-.3s.8-1,.92-.71S466.73,341.82,466.39,341.72Z" transform="translate(-398.67 -337.67)" />
	<path class="cls-1" d="M654.53,387.9c.16.24,0,.44-.28.44s-.9-.29-.67-.64S654.37,387.65,654.53,387.9Z" transform="translate(-398.67 -337.67)" />
	<path class="cls-1" d="M636.17,371.08c.33-.36.6-.5.6-.3s-.21.61-.46.61-1-.08-1-.18a.92.92,0,0,1,.43-.61l.26.31Z" transform="translate(-398.67 -337.67)" />
	<path class="cls-1" d="M566.09,338.8c0,.06-.09.14-.21.18l-.09.11-.09.1c-.08.2-.33.11-.54-.18s-.86.4-.91.3a1.71,1.71,0,0,1-.15-.7h.67A3,3,0,0,1,566.09,338.8Z" transform="translate(-398.67 -337.67)" />
	<path class="cls-1" d="M645.57,369.5a.43.43,0,0,1,.14-.22l.07-.07.09-.1c.1-.12.38-.11.62,0s.92-.21,1-.12a1.69,1.69,0,0,1,.11.63h0l-.65,0A3.54,3.54,0,0,1,645.57,369.5Z" transform="translate(-398.67 -337.67)" />
	<path class="cls-1" d="M554.33,338.6a3.23,3.23,0,0,1,1.35,0l.41.18c.42-.18,1-.8,1.27-.42l.14.24c.33.1.41.29.16.41l-3.37,0c-.49.15-.89.22-.9.14l-.95-.25c-.37,0-1.36-.11-1.36-.23s.3-.41.68-.23l.68.13Z" transform="translate(-398.67 -337.67)" />
	<path class="cls-1" d="M568.2,339.15c0,.16-.16.3-.39.32s-.94-.76-.66-.76S568.19,339,568.2,339.15Z" transform="translate(-398.67 -337.67)" />
	<path class="cls-1" d="M650.87,385.9c-.44.08-.75,0-.67-.17h.73c.82,0,1.49.1,1.49.22S651.31,385.82,650.87,385.9Z" transform="translate(-398.67 -337.67)" />
	<path class="cls-1" d="M640.48,369.07c.08-.11.36-.12.63,0a6.8,6.8,0,0,1,.89.39,1.15,1.15,0,0,1-.6.12c-.33,0-1.26-.12-1.1-.26l.07-.09Z" transform="translate(-398.67 -337.67)" />
	<path class="cls-1" d="M637.4,369.66c-.31,0-.48-.1-.38-.31s.47-.56.66-.44a6.78,6.78,0,0,1,.73.49A6.26,6.26,0,0,1,637.4,369.66Z" transform="translate(-398.67 -337.67)" />
	<path class="cls-1" d="M666.7,386.19c-.48-.26-1,.42-1.32-1.06C665.86,385.39,666.36,384.7,666.7,386.19Z" transform="translate(-398.67 -337.67)" />
	<path class="cls-1" d="M657.93,387.08a1,1,0,0,1,.63.2c.1.11.32.51.28.65h-.61C657.49,387.94,657.68,387.07,657.93,387.08Z" transform="translate(-398.67 -337.67)" />
	<path class="cls-1" d="M602.94,338.81c0-.07.3-.13.67-.13s1,.15.68.34l-.33,0-.34,0C603.25,339.07,602.94,338.88,602.94,338.81Z" transform="translate(-398.67 -337.67)" />
	<path class="cls-1" d="M597.09,339.13h1.8C598.3,339.68,597.69,339.43,597.09,339.13Z" transform="translate(-398.67 -337.67)" />
	<path class="cls-1" d="M474.54,340.83c-.11-.18,0-.33.31-.33s1,.15.76.35S474.64,341,474.54,340.83Z" transform="translate(-398.67 -337.67)" />
	<path class="cls-1" d="M644.19,369.05c.26.34.21.6-.11.57l-.19.06-.13.05C643.61,369.93,643.93,368.71,644.19,369.05Z" transform="translate(-398.67 -337.67)" />
	<path class="cls-1" d="M534.32,338.76c-.21-.1-.39-.3-.39-.45s.15-.55.33-.55S534.54,338.86,534.32,338.76Z" transform="translate(-398.67 -337.67)" />
	<path class="cls-1" d="M674.58,347.06s-.13.14-.3.21-.75.23-.81.15-.18-.52.11-.52A3.85,3.85,0,0,1,674.58,347.06Z" transform="translate(-398.67 -337.67)" />
	<path class="cls-1" d="M465,341.4a.28.28,0,0,1,0,.48c-.16.14-.65.4-.67.25S464.77,341.28,465,341.4Z" transform="translate(-398.67 -337.67)" />
	<path class="cls-1" d="M654.06,385.27c.14,0,.21.22.15.48s-.35.91-.43.6S653.91,385.27,654.06,385.27Z" transform="translate(-398.67 -337.67)" />
	<path class="cls-1" d="M665.31,386.5c.06.27,0,.49-.08.49a.51.51,0,0,1-.41-.42,4,4,0,0,1,.08-.85A2.28,2.28,0,0,1,665.31,386.5Z" transform="translate(-398.67 -337.67)" />
	<path class="cls-1" d="M474.52,340.87c-.12.21-.31.38-.42.38a.34.34,0,0,1-.23-.49C474,340.48,474.63,340.67,474.52,340.87Z" transform="translate(-398.67 -337.67)" />
	<path class="cls-1" d="M570,338.68c.15,0,.16.23,0,.51s-.59.09-.58,0S569.87,338.68,570,338.68Z" transform="translate(-398.67 -337.67)" />
	<path class="cls-1" d="M654.83,386.11a.26.26,0,0,1,.24-.38c.2,0,.74.14.59.31S654.9,386.33,654.83,386.11Z" transform="translate(-398.67 -337.67)" />
	<path class="cls-1" d="M627.57,391.68" transform="translate(-398.67 -337.67)" />
	<path class="cls-1" d="M468.05,341.56a1,1,0,0,1,.33-.21c.18-.08.69-.24.74-.15s.07.47-.19.47A4.14,4.14,0,0,1,468.05,341.56Z" transform="translate(-398.67 -337.67)" />
	<path class="cls-1" d="M487,343.08h-1.18C486.24,342.53,486.65,342.79,487,343.08Z" transform="translate(-398.67 -337.67)" />
	<path class="cls-1" d="M656.18,388.24s-.12.08-.26.08-.52-.11-.52-.24.12-.57.27-.44A3.61,3.61,0,0,1,656.18,388.24Z" transform="translate(-398.67 -337.67)" />
	<path class="cls-1" d="M572.29,339.69a.82.82,0,0,1-.31-.49c0-.13.09-.52.19-.52S572.46,339.84,572.29,339.69Z" transform="translate(-398.67 -337.67)" />
	<path class="cls-1" d="M460.93,341.4a1,1,0,0,1-.09.46c-.07.11-.26.27-.31.15a1.28,1.28,0,0,1-.07-.73C460.54,341.14,460.91,341.26,460.93,341.4Z" transform="translate(-398.67 -337.67)" />
	<path class="cls-1" d="M668.71,386.69c-.19.09-.35.07-.35,0s.15-.47.33-.47a2.41,2.41,0,0,1,.66.07A2.46,2.46,0,0,1,668.71,386.69Z" transform="translate(-398.67 -337.67)" />
	<path class="cls-1" d="M571,338.68c.14,0,.16.15,0,.34s-.46.55-.48.36S570.83,338.68,571,338.68Z" transform="translate(-398.67 -337.67)" />
	<path class="cls-1" d="M578.94,339.46c-.11-.2-.08-.36.06-.36s.49.14.47.31S579.06,339.66,578.94,339.46Z" transform="translate(-398.67 -337.67)" />
	<path class="cls-1" d="M484.19,343.24c.13,0,.12.28,0,.63l-.12.19,0,.07a.35.35,0,0,1-.23-.3C483.76,343.7,484.06,343.24,484.19,343.24Z" transform="translate(-398.67 -337.67)" />
	<path class="cls-1" d="M519.69,338.33s.16-.08.35-.08a2.61,2.61,0,0,1,.7.08s-.16.15-.35.15A2.11,2.11,0,0,1,519.69,338.33Z" transform="translate(-398.67 -337.67)" />
	<path class="cls-1" d="M642.41,372.7c0-.19.08-.22.21-.08s.43.63.3.65S642.43,372.89,642.41,372.7Z" transform="translate(-398.67 -337.67)" />
	<path class="cls-1" d="M538.13,338.35" transform="translate(-398.67 -337.67)" />
	<path class="cls-1" d="M581.75,339.3c0,.08-.12.13-.26.13s-.51,0-.51-.09a.33.33,0,0,1,.25-.22C581.38,339.1,581.75,339.23,581.75,339.3Z" transform="translate(-398.67 -337.67)" />
	<path class="cls-1" d="M547,339" transform="translate(-398.67 -337.67)" />
	<path class="cls-1" d="M469.56,341.54c0-.07.11-.13.25-.13s.51,0,.51.09a.34.34,0,0,1-.25.23C469.93,341.75,469.56,341.61,469.56,341.54Z" transform="translate(-398.67 -337.67)" />
	<path class="cls-1" d="M585,396.36c0-.07.11-.13.25-.13s.51,0,.51.1-.11.2-.25.22S585,396.44,585,396.36Z" transform="translate(-398.67 -337.67)" />
	<path class="cls-1" d="M651.79,368.08a.16.16,0,0,1-.18.14c-.1,0-.37,0-.38-.08a.32.32,0,0,1,.18-.21C651.51,367.9,651.78,368,651.79,368.08Z" transform="translate(-398.67 -337.67)" />
	<path class="cls-1" d="M587.18,396.4c0,.07-.08.13-.18.13s-.37,0-.37-.07a.28.28,0,0,1,.17-.21C586.9,396.21,587.18,396.33,587.18,396.4Z" transform="translate(-398.67 -337.67)" />
	<path class="cls-1" d="M599.6,339.27c0-.07.08-.13.18-.13s.38,0,.38.08a.32.32,0,0,1-.18.21C599.87,339.46,599.6,339.35,599.6,339.27Z" transform="translate(-398.67 -337.67)" />
	<path class="cls-1" d="M508.44,337.89c0-.07.08-.13.18-.13s.37,0,.38.08a.32.32,0,0,1-.18.21C508.72,338.08,508.45,338,508.44,337.89Z" transform="translate(-398.67 -337.67)" />
	<path class="cls-1" d="M529.06,337.93c0,.07-.07.13-.18.13s-.37,0-.37-.08a.32.32,0,0,1,.18-.21C528.79,337.74,529.06,337.85,529.06,337.93Z" transform="translate(-398.67 -337.67)" />
	<path class="cls-1" d="M522.16,338.38c0,.08-.08.14-.18.14s-.37,0-.37-.08a.35.35,0,0,1,.18-.22C521.89,338.19,522.16,338.31,522.16,338.38Z" transform="translate(-398.67 -337.67)" />
	<path class="cls-1" d="M517.35,338.39a.12.12,0,0,1-.11.13c-.06,0-.23,0-.24-.08a.31.31,0,0,1,.11-.2C517.18,338.21,517.35,338.31,517.35,338.39Z" transform="translate(-398.67 -337.67)" />
	<path class="cls-1" d="M509,338.78s.06-.07.14-.07.28,0,.28.07-.06.16-.14.16S509,338.83,509,338.78Z" transform="translate(-398.67 -337.67)" />
	<path class="cls-1" d="M580.33,339.25s.06-.08.13-.08.28,0,.28.08-.06.15-.14.15S580.33,339.29,580.33,339.25Z" transform="translate(-398.67 -337.67)" />
	<path class="cls-1" d="M459.29,340.83l-.1,0h0c-.1-.29-.1-.47,0-.41" transform="translate(-398.67 -337.67)" />
	<path class="cls-1" d="M656.71,342.15" transform="translate(-398.67 -337.67)" />
	<path class="cls-1" d="M633.76,370.58a.73.73,0,0,1,0,.3,4.21,4.21,0,0,1,0,.61.48.48,0,0,1-.07-.3A3.08,3.08,0,0,1,633.76,370.58Z" transform="translate(-398.67 -337.67)" />
	<path class="cls-1" d="M635,371.49a.61.61,0,0,1,0-.3,3.84,3.84,0,0,1,0-.61.5.5,0,0,1,.07.3A3.08,3.08,0,0,1,635,371.49Z" transform="translate(-398.67 -337.67)" />
	<path class="cls-1" d="M661.07,385a.11.11,0,0,1,.11-.13c.06,0,.23,0,.23.08a.26.26,0,0,1-.1.2C661.24,385.13,661.07,385,661.07,385Z" transform="translate(-398.67 -337.67)" />
	<path class="cls-1" d="M550.43,338.8s0-.05.07-.05.14,0,.14.05,0,.1-.07.1S550.43,338.83,550.43,338.8Z" transform="translate(-398.67 -337.67)" />
	<path class="cls-1" d="M626,392.05" transform="translate(-398.67 -337.67)" />
	<path class="cls-1" d="M620.3,371.38a.27.27,0,0,1,.33,0c.1.06.41.41.38.56h0l-.3,0C620.31,371.79,620.22,371.45,620.3,371.38Z" transform="translate(-398.67 -337.67)" />
	<path class="cls-1" d="M641.33,351.19a.12.12,0,0,1-.11.13c-.06,0-.23,0-.24-.08a.31.31,0,0,1,.11-.2C641.15,351,641.33,351.11,641.33,351.19Z" transform="translate(-398.67 -337.67)" />
	<path class="cls-1" d="M511,338.56c1.5-.82,3-.18,4.51-.4" transform="translate(-398.67 -337.67)" />
</svg>
