<svg id="Слой_1" data-name="Слой 1" xmlns="http://www.w3.org/2000/svg" viewBox="0 0 122.63 126.2"><defs><style>.cls-1{fill:#de5b33;}.cls-2{fill:none;stroke:#b25329;stroke-miterlimit:10;}.cls-3{fill:#8f634c;}.cls-4{fill:#eae233;}.cls-5{fill:#e7e633;}</style></defs><title>тыква-3</title><path class="cls-1" d="M393.5,247.92s-29.67,9-34.33,45.33,36.33,59.67,36.33,59.67,31,12.33,62-3.67,23-60,23-60-2.67-31.33-33-41.33c-15-1.67-15,0-15,0s-23.33-3.82-30-.74C398.5,247.58,393.5,247.92,393.5,247.92Z" transform="translate(-358.8 -231.25)"/><path class="cls-2" d="M399.72,247.44s-16.22,18.81-12,39.06.8,27,.8,27,7.17,36.72,10,39" transform="translate(-358.8 -231.25)"/><path class="cls-2" d="M416.14,247.44s-8.35,15.56,0,49.56c1.61,22.5,3.11,27.56,3.11,27.56s4.1,30.17,6.54,31.44" transform="translate(-358.8 -231.25)"/><path class="cls-2" d="M430.75,248.83s12.33,20.22,11.67,39.95a208.74,208.74,0,0,0,1.32,33.47s5.2,27.58,2.85,31.54" transform="translate(-358.8 -231.25)"/><path class="cls-2" d="M437.25,247.18s14.38,9.69,18.07,31.63,5.82,67.94,4.12,68.19" transform="translate(-358.8 -231.25)"/><path class="cls-2" d="M445.78,247.73s12.72,2.77,24.72,29.77c7,19.59,1.23,59.45,1.23,59.45" transform="translate(-358.8 -231.25)"/><path class="cls-2" d="M396,247.73S377.2,261.5,376.29,277s-7,14.28-7,14.28l2.2,22.81s9.34,29.47,14.78,32.94" transform="translate(-358.8 -231.25)"/><path class="cls-3" d="M413.75,246s7.25-13.23,14-14.73a11.87,11.87,0,0,1,7,7.36s-5.56,5.07-5.28,8.86S413.75,246,413.75,246Z" transform="translate(-358.8 -231.25)"/><path class="cls-4" d="M410.75,258.5s3,16.5-16,15-1-18.75,4-19.5S410.58,255.77,410.75,258.5Z" transform="translate(-358.8 -231.25)"/><path class="cls-4" d="M420.28,258.5s-3,16.5,16,15,1-18.75-4-19.5S420.45,255.77,420.28,258.5Z" transform="translate(-358.8 -231.25)"/><path class="cls-5" d="M371,267.75S358,295,365.75,309.5c10.5,8.25,8.75,7.5,15.25,11.75,2-2.25,1.75-7.75,1.75-7.75s6.75-1.5,10,2.5v7s19.72,3.5,27.36,0V310.75l10.64-1.5s3.5,12,4,12.5,15,1,18.25-.5v-8l7.75-3.75L462,318a5.82,5.82,0,0,0,6-5.75c.5-6,3.95-34.67-5.75-48.52-1.5,5-.5,3.46.25,9.87s-.25,9.4-5.5,3.4c-3.75,4.25-8.75,8.5-17.5,13.5a47.31,47.31,0,0,0,3.75,8.5s-6.25,4.18-8.5,2.72-5.5-11.47-5.5-11.47-11.71-2-13.11,0,0,6.75,0,6.75a18.66,18.66,0,0,1-11.64.5c-1.25-4.5,0-5.5-2-8.5s-12.5,1-14.75-2.5-2.75,8.25-6.5,10.75-7.5-8.75-7.5-8.75l5.75-8S370.71,271.62,371,267.75Z" transform="translate(-358.8 -231.25)"/></svg>