<svg id="Слой_1" data-name="Слой 1" xmlns="http://www.w3.org/2000/svg" viewBox="0 0 112.49 111.23"><defs><style>.cls-1{fill:#e27133;stroke:#7d3333;}.cls-1,.cls-2,.cls-3,.cls-4{stroke-miterlimit:10;}.cls-2,.cls-3{fill:none;}.cls-2{stroke:#ce632e;}.cls-3{stroke:#bc572a;}.cls-4{fill:#edd633;stroke:#a84c1e;}.cls-5{fill:#573f36;}</style></defs><title>Безымянный-1</title><path class="cls-1" d="M429.66,230.48s12.42-1.5,16.92,0,24.17,8.5,31.17,31.34-6.5,40.5-21.34,51.66-46,10-65.16,4-23.84-27.83-23-48.16,16.16-35.84,28.83-38.17,19.74-1.33,19.74-1.33Z" transform="translate(-367.66 -211.23)"/><path class="cls-2" d="M430,230.44s30.12,49,3.48,90.89" transform="translate(-367.66 -211.23)"/><path class="cls-3" d="M423.31,233.87s5.74,30,1.23,88.07" transform="translate(-367.66 -211.23)"/><path class="cls-3" d="M433.86,230.09c2.32-.15,67.87,41.38,4.81,90.46" transform="translate(-367.66 -211.23)"/><path class="cls-3" d="M416.52,231.66s-39.65,41.22-1,88.89" transform="translate(-367.66 -211.23)"/><path class="cls-3" d="M411.83,229.61s-71.21,39.93-4.63,90.94" transform="translate(-367.66 -211.23)"/><path class="cls-4" d="M391.83,277.48s-4.62.75-5.5-2.62,4.13-4.38,6.5-5,5-1.5,6.63,1.37-2.88,4.56-2.88,4.56-2.37,7.69,9,13.44c6.13,2.63,25.5,1.38,28.5,0s8.88-1.89,15.5-13.44a5.37,5.37,0,0,1-2-5.81c1.13-3.62,5.13-2.25,5.13-2.25s6.37.63,7.37,3.63-.5,5.25-3.87,5.25c-2.38,1.75-1.38,5.5-14.13,15.12s-34.37,3.63-36.12,3S394.08,288.48,391.83,277.48Z" transform="translate(-367.66 -211.23)"/><path class="cls-4" d="M439.6,241.15s15.33,14.67,11,20.17-15.83,7.66-20.83,1.33-2-20.67,2.5-21.5S436.43,239.32,439.6,241.15Z" transform="translate(-367.66 -211.23)"/><path class="cls-4" d="M405.25,241.15s-15.34,14.67-11,20.17,15.83,7.66,20.83,1.33,2-20.67-2.5-21.5S408.41,239.32,405.25,241.15Z" transform="translate(-367.66 -211.23)"/><path class="cls-5" d="M429.58,232.11c1-4.13-7.12-20.9-11.5-20.88-3.87.75-5.33,3.59-6.25,7,7.75,7.25,4.25,14.75,4.25,14.75S426,235.48,429.58,232.11Z" transform="translate(-367.66 -211.23)"/><path class="cls-1" d="M423.31,233.87" transform="translate(-367.66 -211.23)"/></svg>